<?xml version="1.0" standalone="no"?>
<!DOCTYPE svg PUBLIC "-//W3C//DTD SVG 20010904//EN"
 "http://www.w3.org/TR/2001/REC-SVG-20010904/DTD/svg10.dtd">
<svg version="1.0" xmlns="http://www.w3.org/2000/svg"
 width="800.000000pt" height="445.000000pt" viewBox="0 0 800.000000 445.000000"
 preserveAspectRatio="xMidYMid meet">

<g transform="translate(0.000000,445.000000) scale(0.100000,-0.100000)"
fill="#000000" stroke="none">
<path d="M0 2225 l0 -2225 4000 0 4000 0 0 2225 0 2225 -4000 0 -4000 0 0
-2225z m4893 709 c85 -22 177 -69 234 -119 l48 -43 -21 -22 -22 -22 -73 51
c-279 196 -661 100 -809 -204 -80 -162 -78 -343 4 -510 88 -179 279 -295 483
-295 139 0 232 31 342 112 l53 40 24 -23 24 -24 -53 -42 c-110 -89 -243 -135
-391 -134 -213 1 -396 98 -512 272 -68 103 -96 190 -102 324 -5 130 15 223 76
340 71 137 225 258 382 299 75 20 237 20 313 0z m-2668 -570 l230 -335 3 336
2 335 40 0 40 0 0 -400 0 -400 -42 0 -43 1 -170 246 c-93 136 -200 291 -237
346 l-68 99 0 -346 0 -346 -35 0 -35 0 0 400 0 400 43 0 42 0 230 -336z m933
304 l-3 -33 -157 -3 -158 -3 0 -144 0 -145 145 0 145 0 0 -35 0 -35 -145 0
-145 0 0 -150 0 -150 165 0 165 0 0 -35 0 -35 -205 0 -205 0 0 400 0 400 201
0 200 0 -3 -32z m652 -3 l0 -35 -115 0 -115 0 0 -365 0 -365 -40 0 -40 0 0
365 0 365 -115 0 -115 0 0 35 0 35 270 0 270 0 0 -35z m2041 -56 c101 -22 169
-124 169 -256 l0 -53 -211 0 -211 0 7 -42 c16 -96 52 -147 121 -174 58 -22
135 -15 202 19 30 15 56 27 58 27 2 0 4 -15 4 -34 0 -31 -5 -37 -44 -55 -65
-32 -150 -43 -216 -30 -113 23 -181 103 -200 235 -28 200 78 357 252 373 9 0
40 -4 69 -10z m-391 -37 l0 -39 -55 5 c-51 4 -56 3 -89 -30 -54 -54 -66 -112
-66 -315 l0 -173 -40 0 -40 0 0 290 0 290 40 0 40 0 0 -52 0 -53 23 38 c33 55
72 77 135 77 l52 0 0 -38z m-647 -46 c103 -42 145 -200 86 -318 -65 -129 -282
-131 -344 -1 -23 47 -31 149 -15 197 35 107 168 167 273 122z m-3118 -550 c25
-25 25 -44 2 -73 -12 -16 -59 -17 -75 -1 -20 20 -14 65 10 82 30 21 35 20 63
-8z"/>
<path d="M5715 2534 c-16 -8 -38 -23 -49 -32 -23 -21 -55 -89 -56 -119 0 -23
0 -23 165 -23 l165 0 0 38 c0 50 -38 113 -80 134 -43 22 -105 23 -145 2z"/>
</g>
</svg>
