<?xml version="1.0" standalone="no"?>
<!DOCTYPE svg PUBLIC "-//W3C//DTD SVG 20010904//EN"
 "http://www.w3.org/TR/2001/REC-SVG-20010904/DTD/svg10.dtd">
<svg version="1.0" xmlns="http://www.w3.org/2000/svg"
 width="1200.000000pt" height="900.000000pt" viewBox="0 0 1200.000000 628.000000"
 preserveAspectRatio="xMidYMid meet">

<g transform="translate(0.000000,628.000000) scale(0.100000,-0.100000)"
fill="#000000" stroke="none">
<path d="M2089 3907 c-72 -48 -69 -14 -69 -772 0 -643 1 -682 19 -715 10 -19
33 -45 51 -57 l33 -23 689 0 c755 0 719 -3 772 60 l26 32 0 705 0 706 -45 44
-45 43 -699 0 -698 0 -34 -23z m1339 -728 l32 -11 0 -75 c0 -68 -2 -74 -17
-68 -66 28 -105 37 -154 37 -63 0 -93 -12 -110 -43 -19 -36 7 -66 90 -107 183
-89 215 -122 215 -231 1 -124 -62 -189 -204 -212 -70 -11 -146 -5 -227 17
l-53 15 0 79 c0 44 2 80 4 80 2 0 23 -11 48 -25 114 -64 258 -48 258 29 0 33
-45 70 -140 113 -105 49 -155 100 -165 167 -19 121 44 211 168 242 59 15 203
11 255 -7z m-480 -66 l-3 -68 -97 -3 -98 -3 0 -284 0 -285 -85 0 -85 0 0 285
0 284 -97 3 -98 3 -3 68 -3 67 286 0 286 0 -3 -67z"/>
<path d="M7125 3676 c-127 -40 -197 -113 -212 -221 -9 -71 13 -132 69 -188 55
-55 107 -80 269 -132 154 -48 227 -89 256 -145 60 -113 -5 -236 -141 -271 -26
-6 -85 -10 -135 -7 -72 3 -98 9 -145 33 -64 32 -110 91 -121 156 -7 38 -8 39
-47 39 l-41 0 7 -47 c13 -94 92 -184 198 -225 68 -27 224 -36 299 -18 146 35
228 129 229 259 0 153 -84 224 -365 310 -112 34 -196 79 -221 116 -42 65 -38
145 12 203 41 48 87 71 166 82 160 23 301 -60 316 -187 l5 -43 44 0 45 0 -7
43 c-14 82 -70 162 -146 209 -72 45 -244 62 -334 34z"/>
<path d="M9030 3671 c-17 -32 -11 -60 15 -77 52 -34 111 31 70 76 -23 26 -71
26 -85 1z"/>
<path d="M3790 3645 l0 -35 180 0 180 0 0 -480 0 -480 40 0 40 0 0 480 0 480
175 0 175 0 0 35 0 35 -395 0 -395 0 0 -35z"/>
<path d="M10200 3510 l0 -100 -70 0 -70 0 0 -30 0 -30 70 0 70 0 0 -292 c0
-267 2 -297 20 -335 28 -63 69 -84 155 -81 l70 3 3 33 3 32 -56 0 c-31 0 -65
4 -75 10 -35 19 -40 64 -40 351 l0 279 80 0 80 0 0 30 0 30 -80 0 -80 0 0 100
0 100 -40 0 -40 0 0 -100z"/>
<path d="M5592 3412 c-54 -20 -81 -38 -119 -82 l-23 -25 0 53 0 52 -40 0 -40
0 0 -525 0 -525 40 0 40 0 0 192 0 192 28 -26 c79 -74 222 -100 320 -58 65 28
124 92 153 169 34 86 39 285 10 380 -26 87 -82 160 -146 191 -64 31 -155 36
-223 12z m151 -63 c97 -27 157 -146 157 -313 0 -146 -30 -231 -103 -290 -33
-26 -48 -31 -108 -34 -102 -6 -165 21 -217 95 -21 29 -22 41 -22 217 0 207 5
228 67 280 61 52 144 68 226 45z"/>
<path d="M6373 3416 c-163 -52 -254 -214 -240 -432 12 -197 140 -332 324 -342
98 -6 169 18 234 76 47 42 49 45 33 63 -22 25 -37 24 -60 -2 -35 -40 -113 -69
-185 -69 -145 0 -249 102 -266 262 l-6 58 278 0 278 0 -6 73 c-15 172 -84 274
-213 313 -57 17 -115 17 -171 0z m150 -67 c76 -21 134 -101 152 -206 l7 -43
-235 0 -235 0 9 41 c37 165 158 248 302 208z"/>
<path d="M7978 3417 c-139 -40 -222 -161 -234 -345 -13 -190 53 -338 181 -405
28 -14 65 -22 120 -25 159 -8 276 71 310 211 7 26 6 27 -33 27 -35 0 -40 -3
-45 -27 -17 -85 -101 -142 -207 -142 -114 -1 -190 54 -227 164 -21 60 -24 238
-5 302 18 62 72 134 116 157 79 40 184 31 253 -21 34 -26 73 -96 73 -131 0
-19 6 -22 40 -22 46 0 47 3 24 79 -40 137 -213 221 -366 178z"/>
<path d="M8749 3415 c-31 -10 -60 -30 -88 -60 -23 -25 -44 -45 -46 -45 -3 0
-5 23 -5 50 l0 50 -40 0 -40 0 0 -380 0 -380 40 0 40 0 0 263 c0 254 1 264 24
312 39 85 104 125 204 125 l43 0 -3 38 c-3 36 -4 37 -43 39 -22 1 -61 -4 -86
-12z"/>
<path d="M9579 3417 c-47 -14 -91 -40 -123 -76 -28 -31 -36 -26 -36 24 0 45 0
45 -35 45 l-35 0 0 -525 0 -525 40 0 40 0 0 192 0 192 33 -31 c59 -57 92 -68
198 -68 93 0 98 1 145 33 60 41 99 93 125 169 39 114 35 302 -10 406 -25 58
-83 123 -133 148 -49 25 -149 33 -209 16z m149 -72 c20 -9 47 -26 60 -38 68
-63 103 -210 84 -347 -25 -177 -93 -250 -234 -250 -75 0 -135 26 -178 78 l-30
37 0 200 c0 179 2 203 19 231 23 38 79 82 118 94 46 14 121 11 161 -5z"/>
<path d="M4605 3393 c3 -10 56 -148 116 -308 61 -159 122 -321 136 -358 l27
-69 -24 -71 c-43 -125 -85 -168 -169 -170 -50 -2 -51 -2 -51 -34 0 -27 4 -32
30 -38 54 -12 124 12 168 57 33 33 51 68 96 187 120 318 296 804 296 818 0 2
-19 3 -42 1 l-41 -3 -65 -185 c-35 -102 -81 -236 -103 -298 -42 -123 -54 -149
-61 -136 -3 5 -56 147 -119 317 l-113 307 -44 0 c-38 0 -43 -2 -37 -17z"/>
<path d="M9030 3030 l0 -380 40 0 40 0 0 380 0 380 -40 0 -40 0 0 -380z"/>
</g>
</svg>
